<svg width="315" height="105" viewBox="0 0 315 105" fill="none" xmlns="http://www.w3.org/2000/svg">
<path fill-rule="evenodd" clip-rule="evenodd" d="M303.436 15.968C303.485 17.573 303.919 18.807 304.737 19.669C305.554 20.532 306.706 20.963 308.191 20.963C309.169 20.963 310.078 20.871 310.921 20.686C311.763 20.502 312.668 20.195 313.635 19.766V22.623C312.778 23.032 311.91 23.321 311.033 23.49C310.156 23.66 309.154 23.745 308.027 23.745C305.455 23.745 303.443 22.995 301.992 21.494C300.542 19.993 299.816 17.927 299.816 15.295C299.816 12.593 300.489 10.469 301.835 8.92401C303.181 7.37801 305.031 6.60501 307.384 6.60501C309.567 6.60501 311.292 7.26901 312.559 8.59501C313.825 9.92101 314.458 11.745 314.458 14.068V15.968H303.436ZM310.016 10.322C309.378 9.61901 308.5 9.26801 307.384 9.26801C306.267 9.26801 305.372 9.62201 304.699 10.329C304.026 11.037 303.625 12.069 303.495 13.425H311.003C310.983 12.059 310.654 11.025 310.016 10.322ZM295.554 10.643C295.723 11.152 295.808 11.69 295.808 12.259C295.808 13.964 295.22 15.305 294.043 16.282C292.867 17.259 291.247 17.747 289.183 17.747C288.654 17.747 288.176 17.708 287.747 17.628C286.989 18.097 286.61 18.645 286.61 19.273C286.61 19.652 286.787 19.936 287.141 20.125C287.495 20.315 288.146 20.41 289.093 20.41H291.98C293.804 20.41 295.19 20.798 296.137 21.576C297.084 22.354 297.558 23.475 297.558 24.941C297.558 26.815 296.785 28.261 295.24 29.278C293.694 30.295 291.461 30.804 288.54 30.804C286.286 30.804 284.566 30.405 283.38 29.607C282.193 28.809 281.6 27.673 281.6 26.197C281.6 25.18 281.922 24.325 282.565 23.632C283.208 22.94 284.108 22.458 285.264 22.189C284.796 21.99 284.409 21.668 284.105 21.225C283.801 20.781 283.649 20.315 283.649 19.826C283.649 19.208 283.824 18.685 284.173 18.256C284.522 17.827 285.04 17.403 285.728 16.985C284.87 16.616 284.175 16.015 283.642 15.183C283.108 14.35 282.842 13.375 282.842 12.259C282.842 10.464 283.407 9.07301 284.539 8.08601C285.671 7.09901 287.283 6.60501 289.377 6.60501C289.846 6.60501 290.337 6.63801 290.85 6.70301C291.364 6.76801 291.75 6.83501 292.009 6.90501H297.737V8.83401L294.911 9.35701C295.17 9.70601 295.384 10.135 295.554 10.643ZM285.631 24.096C285.038 24.57 284.741 25.21 284.741 26.018C284.741 26.775 285.082 27.359 285.765 27.768C286.448 28.176 287.408 28.381 288.644 28.381C290.559 28.381 291.984 28.107 292.922 27.558C293.859 27.01 294.328 26.282 294.328 25.375C294.328 24.657 294.071 24.146 293.557 23.842C293.044 23.538 292.089 23.386 290.693 23.386H288.031C287.024 23.386 286.224 23.622 285.631 24.096ZM291.643 9.73901C291.139 9.15501 290.374 8.86401 289.347 8.86401C288.33 8.86401 287.56 9.15301 287.037 9.73101C286.513 10.31 286.252 11.152 286.252 12.259C286.252 13.296 286.518 14.093 287.052 14.652C287.585 15.21 288.35 15.489 289.347 15.489C291.381 15.489 292.398 14.402 292.398 12.229C292.398 11.152 292.146 10.322 291.643 9.73901ZM277.009 4.45201C276.371 4.45201 275.88 4.28001 275.536 3.93601C275.192 3.59201 275.02 3.12101 275.02 2.52301C275.02 1.89401 275.192 1.41101 275.536 1.07201C275.88 0.733011 276.371 0.563011 277.009 0.563011C277.627 0.563011 278.108 0.733011 278.452 1.07201C278.796 1.41101 278.968 1.89401 278.968 2.52301C278.968 3.12101 278.796 3.59201 278.452 3.93601C278.108 4.28001 277.627 4.45201 277.009 4.45201ZM259.092 21.277L267.452 9.59701H259.601V6.90501H271.401V9.35701L263.22 20.753H271.64V23.446H259.092V21.277ZM252.168 13.276C252.168 12 251.911 11.047 251.397 10.419C250.884 9.79101 250.069 9.47701 248.952 9.47701C247.466 9.47701 246.38 9.91601 245.692 10.793C245.004 11.67 244.66 13.141 244.66 15.205V23.446H241.145V6.90501H243.897L244.391 9.07301H244.57C245.069 8.28601 245.776 7.67701 246.694 7.24901C247.611 6.82001 248.628 6.60501 249.745 6.60501C253.713 6.60501 255.697 8.62401 255.697 12.662V23.446H252.168V13.276ZM246.559 44.542L245.423 47.189C243.638 46.451 242.137 46.082 240.921 46.082C239.066 46.082 238.139 46.611 238.139 47.668C238.139 48.186 238.381 48.625 238.864 48.984C239.348 49.343 240.402 49.836 242.028 50.464C243.393 50.993 244.385 51.477 245.004 51.915C245.622 52.354 246.081 52.86 246.38 53.433C246.679 54.007 246.828 54.692 246.828 55.49C246.828 57.105 246.24 58.344 245.064 59.206C243.887 60.069 242.202 60.5 240.009 60.5C237.805 60.5 236.035 60.166 234.699 59.498V56.462C236.644 57.359 238.453 57.808 240.128 57.808C242.292 57.808 243.374 57.155 243.374 55.848C243.374 55.43 243.254 55.081 243.015 54.802C242.775 54.523 242.381 54.233 241.833 53.934C241.285 53.635 240.522 53.296 239.545 52.917C237.64 52.179 236.352 51.442 235.679 50.704C235.006 49.966 234.669 49.009 234.669 47.832C234.669 46.417 235.24 45.317 236.382 44.535C237.523 43.752 239.076 43.36 241.041 43.36C242.985 43.36 244.824 43.754 246.559 44.542ZM234.385 4.45201C233.747 4.45201 233.256 4.28001 232.912 3.93601C232.568 3.59201 232.396 3.12101 232.396 2.52301C232.396 1.89401 232.568 1.41101 232.912 1.07201C233.256 0.733011 233.747 0.563011 234.385 0.563011C235.003 0.563011 235.484 0.733011 235.828 1.07201C236.172 1.41101 236.344 1.89401 236.344 2.52301C236.344 3.12101 236.172 3.59201 235.828 3.93601C235.484 4.28001 235.003 4.45201 234.385 4.45201ZM222.002 56.424C222.819 57.287 223.971 57.718 225.457 57.718C226.434 57.718 227.343 57.626 228.186 57.441C229.029 57.257 229.933 56.95 230.901 56.521V59.378C230.043 59.787 229.176 60.076 228.298 60.245C227.421 60.415 226.419 60.5 225.292 60.5C222.72 60.5 220.708 59.75 219.258 58.249C217.807 56.748 217.082 54.682 217.082 52.05C217.082 49.348 217.755 47.224 219.101 45.679C220.447 44.133 222.296 43.36 224.649 43.36C226.833 43.36 228.557 44.024 229.824 45.35C231.09 46.676 231.723 48.5 231.723 50.823V52.723H220.701C220.751 54.328 221.184 55.562 222.002 56.424ZM228.268 50.18C228.248 48.814 227.919 47.78 227.281 47.077C226.643 46.374 225.766 46.023 224.649 46.023C223.532 46.023 222.638 46.377 221.965 47.084C221.292 47.793 220.89 48.824 220.761 50.18H228.268ZM218.891 19.669C219.709 20.532 220.86 20.963 222.346 20.963C223.323 20.963 224.233 20.871 225.075 20.686C225.918 20.502 226.823 20.195 227.79 19.766V22.623C226.932 23.032 226.065 23.321 225.188 23.49C224.31 23.66 223.308 23.745 222.181 23.745C219.609 23.745 217.598 22.995 216.147 21.494C214.696 19.993 213.971 17.927 213.971 15.295C213.971 12.593 214.644 10.469 215.99 8.92401C217.336 7.37801 219.185 6.60501 221.538 6.60501C223.722 6.60501 225.447 7.26901 226.713 8.59501C227.979 9.92101 228.612 11.745 228.612 14.068V15.968H217.59C217.64 17.573 218.074 18.807 218.891 19.669ZM225.158 13.425C225.138 12.059 224.808 11.025 224.171 10.322C223.532 9.61901 222.655 9.26801 221.538 9.26801C220.422 9.26801 219.527 9.62201 218.854 10.329C218.181 11.037 217.779 12.069 217.65 13.425H225.158ZM209.678 58.032H209.514C208.387 59.677 206.737 60.5 204.564 60.5C201.6 60.5 200.889 59.752 199.733 58.256C198.576 56.761 197.998 54.662 197.998 51.96C197.998 49.248 198.584 47.137 199.755 45.626C200.927 44.116 202.55 43.36 204.623 43.36C206.797 43.36 208.452 44.163 209.589 45.768H209.768C209.599 44.582 209.514 43.645 209.514 42.957V36.93H213.044V60.201H210.292L209.678 58.032ZM209.678 51.99C209.678 49.906 209.339 48.426 208.662 47.548C207.983 46.671 206.922 46.232 205.476 46.232C204.24 46.232 203.287 46.733 202.619 47.735C201.951 48.737 201.617 50.165 201.617 52.02C201.617 53.854 201.941 55.253 202.59 56.215C203.238 57.177 204.21 57.658 205.506 57.658C206.951 57.658 208.003 57.252 208.662 56.439C209.32 55.627 209.658 54.308 209.678 52.483V51.99ZM198.611 21.277H198.447C197.32 22.922 195.67 23.745 193.496 23.745C191.433 23.745 189.822 22.997 188.666 21.501C187.509 20.006 186.931 17.907 186.931 15.205C186.931 12.493 187.517 10.382 188.688 8.87101C189.86 7.36101 191.482 6.60501 193.556 6.60501C195.73 6.60501 197.385 7.40801 198.522 9.01301H198.701C198.531 7.82701 198.447 6.89001 198.447 6.20201V0.174011H201.976V23.446H199.224L198.611 21.277ZM198.611 15.235C198.611 13.151 198.272 11.67 197.594 10.793C196.916 9.91601 195.854 9.47701 194.409 9.47701C193.172 9.47701 192.22 9.97801 191.552 10.98C190.884 11.982 190.55 13.41 190.55 15.265C190.55 17.099 190.874 18.498 191.522 19.46C192.17 20.422 193.142 20.903 194.439 20.903C195.884 20.903 196.936 20.497 197.594 19.684C198.252 18.872 198.591 17.553 198.611 15.728V15.235ZM187.619 46.785C187.12 46.666 186.602 46.606 186.063 46.606C184.658 46.606 183.518 47.065 182.646 47.982C181.774 48.899 181.337 50.091 181.337 51.556V60.201H177.823V43.66H180.575L181.038 46.576H181.218C181.766 45.589 182.482 44.806 183.364 44.228C184.246 43.65 185.196 43.36 186.213 43.36C186.921 43.36 187.504 43.41 187.963 43.51L187.619 46.785ZM179.498 13.276C179.498 12 179.241 11.047 178.728 10.419C178.214 9.79101 177.399 9.47701 176.282 9.47701C174.797 9.47701 173.71 9.91601 173.022 10.793C172.334 11.67 171.99 13.141 171.99 15.205V23.446H168.476V6.90501H171.227L171.721 9.07301H171.9C172.399 8.28601 173.107 7.67701 174.024 7.24901C174.941 6.82001 175.958 6.60501 177.075 6.60501C181.043 6.60501 183.027 8.62401 183.027 12.662V23.446H179.498V13.276ZM171.93 45.35C173.196 46.676 173.83 48.5 173.83 50.823V52.723H162.807C162.857 54.328 163.291 55.562 164.109 56.424C164.926 57.287 166.078 57.718 167.563 57.718C168.54 57.718 169.45 57.626 170.293 57.441C171.135 57.257 172.04 56.95 173.007 56.521V59.378C172.15 59.787 171.282 60.076 170.405 60.245C169.527 60.415 168.525 60.5 167.399 60.5C164.826 60.5 162.815 59.75 161.364 58.249C159.913 56.748 159.188 54.682 159.188 52.05C159.188 49.348 159.861 47.224 161.207 45.679C162.553 44.133 164.403 43.36 166.756 43.36C168.939 43.36 170.664 44.024 171.93 45.35ZM166.756 46.023C165.639 46.023 164.744 46.377 164.071 47.084C163.398 47.793 162.997 48.824 162.867 50.18H170.375C170.355 48.814 170.026 47.78 169.388 47.077C168.75 46.374 167.872 46.023 166.756 46.023ZM160.205 21.277H160.026C159.537 22.045 158.842 22.648 157.939 23.087C157.037 23.525 156.007 23.745 154.851 23.745C152.847 23.745 151.351 23.246 150.364 22.249C149.377 21.252 148.884 19.742 148.884 17.717V6.90501H152.428V17.104C152.428 18.371 152.687 19.32 153.206 19.953C153.724 20.587 154.537 20.903 155.644 20.903C157.119 20.903 158.203 20.462 158.897 19.579C159.589 18.697 159.936 17.219 159.936 15.145V6.90501H163.465V23.446H160.699L160.205 21.277ZM151.994 39.981V43.66H156.706V46.322H151.994V55.175C151.994 56.023 152.206 56.649 152.63 57.052C153.054 57.456 153.61 57.658 154.298 57.658C155.155 57.658 156.012 57.524 156.87 57.254V59.901C156.481 60.071 155.98 60.213 155.367 60.328C154.754 60.442 154.118 60.5 153.46 60.5C150.13 60.5 148.465 58.745 148.465 55.235V46.322H146.207V44.766L148.629 43.48L149.826 39.981H151.994ZM150.14 87.578V89.478H139.118C139.167 91.083 139.601 92.317 140.419 93.179C141.236 94.042 142.388 94.473 143.874 94.473C144.851 94.473 145.76 94.381 146.603 94.196C147.445 94.012 148.35 93.705 149.317 93.277V96.133C148.46 96.542 147.592 96.831 146.715 97C145.838 97.17 144.836 97.255 143.709 97.255C141.137 97.255 139.125 96.505 137.674 95.004C136.224 93.503 135.498 91.437 135.498 88.805C135.498 86.103 136.171 83.979 137.517 82.434C138.863 80.888 140.713 80.116 143.066 80.116C145.249 80.116 146.974 80.779 148.241 82.105C149.507 83.431 150.14 85.255 150.14 87.578ZM145.698 83.832C145.06 83.129 144.182 82.778 143.066 82.778C141.949 82.778 141.054 83.132 140.381 83.84C139.708 84.548 139.307 85.58 139.177 86.935H146.685C146.665 85.569 146.336 84.535 145.698 83.832ZM140.015 57.897H139.895C139.098 58.905 138.295 59.59 137.487 59.954C136.68 60.318 135.643 60.5 134.377 60.5C132.751 60.5 131.483 60.061 130.57 59.184C129.658 58.306 129.202 57.065 129.202 55.46C129.202 53.755 129.835 52.468 131.101 51.601C132.367 50.734 134.297 50.26 136.889 50.18L139.746 50.091V49.208C139.746 48.151 139.499 47.361 139.005 46.838C138.512 46.314 137.747 46.053 136.71 46.053C135.862 46.053 135.05 46.177 134.272 46.426C133.494 46.676 132.747 46.97 132.029 47.309L130.892 44.796C131.789 44.328 132.771 43.971 133.838 43.727C134.905 43.483 135.912 43.36 136.859 43.36C138.963 43.36 140.551 43.819 141.623 44.736C142.694 45.654 143.23 47.094 143.23 49.059V60.201H140.718L140.015 57.897ZM139.716 52.304L137.592 52.394C135.937 52.454 134.733 52.73 133.98 53.224C133.227 53.717 132.851 54.473 132.851 55.49C132.851 56.228 133.07 56.798 133.509 57.202C133.948 57.606 134.606 57.808 135.483 57.808C136.76 57.808 137.784 57.451 138.557 56.738C139.329 56.026 139.716 55.026 139.716 53.74V52.304ZM127.362 19.669C128.18 20.532 129.331 20.963 130.817 20.963C131.794 20.963 132.704 20.871 133.547 20.686C134.389 20.502 135.294 20.195 136.261 19.766V22.623C135.403 23.032 134.536 23.321 133.659 23.49C132.781 23.66 131.779 23.745 130.653 23.745C128.08 23.745 126.069 22.995 124.618 21.494C123.167 19.993 122.442 17.927 122.442 15.295C122.442 12.593 123.115 10.469 124.461 8.92401C125.807 7.37801 127.656 6.60501 130.01 6.60501C132.193 6.60501 133.918 7.26901 135.184 8.59501C136.45 9.92101 137.084 11.745 137.084 14.068V15.968H126.061C126.111 17.573 126.545 18.807 127.362 19.669ZM133.629 13.425C133.609 12.059 133.28 11.025 132.642 10.322C132.004 9.61901 131.126 9.26801 130.01 9.26801C128.893 9.26801 127.998 9.62201 127.325 10.329C126.652 11.037 126.251 12.069 126.121 13.425H133.629ZM126.375 50.823V52.723H115.353C115.403 54.328 115.837 55.562 116.654 56.424C117.472 57.287 118.623 57.718 120.109 57.718C121.086 57.718 121.996 57.626 122.838 57.441C123.681 57.257 124.586 56.95 125.553 56.521V59.378C124.695 59.787 123.828 60.076 122.951 60.245C122.073 60.415 121.071 60.5 119.944 60.5C117.372 60.5 115.361 59.75 113.91 58.249C112.459 56.748 111.734 54.682 111.734 52.05C111.734 49.348 112.407 47.224 113.753 45.679C115.099 44.133 116.948 43.36 119.301 43.36C121.485 43.36 123.21 44.024 124.476 45.35C125.742 46.676 126.375 48.5 126.375 50.823ZM121.934 47.077C121.295 46.374 120.418 46.023 119.301 46.023C118.185 46.023 117.29 46.377 116.617 47.084C115.944 47.793 115.542 48.824 115.413 50.18H122.921C122.901 48.814 122.572 47.78 121.934 47.077ZM118.621 23.573C118.008 23.687 117.372 23.745 116.714 23.745C113.384 23.745 111.719 21.99 111.719 18.48V9.56701H109.461V8.01101L111.883 6.72501L113.08 3.22501H115.248V6.90501H119.959V9.56701H115.248V18.42C115.248 19.268 115.46 19.894 115.884 20.297C116.308 20.701 116.864 20.903 117.552 20.903C118.409 20.903 119.266 20.768 120.124 20.499V23.146C119.735 23.316 119.234 23.458 118.621 23.573ZM112.377 79.218C112.377 79.627 112.357 80.235 112.317 81.043C112.277 81.85 112.247 82.364 112.227 82.583H112.377C113.493 80.938 115.139 80.116 117.312 80.116C119.376 80.116 120.984 80.863 122.135 82.359C123.287 83.854 123.863 85.953 123.863 88.655C123.863 91.367 123.28 93.478 122.113 94.989C120.947 96.499 119.326 97.255 117.252 97.255C115.159 97.255 113.533 96.502 112.377 94.996H112.138L111.495 96.956H108.862V73.685H112.377V79.218ZM112.377 88.655C112.377 90.669 112.696 92.128 113.334 93.03C113.972 93.932 115.014 94.383 116.46 94.383C117.706 94.383 118.651 93.89 119.294 92.903C119.937 91.916 120.259 90.49 120.259 88.625C120.259 84.867 118.972 82.987 116.4 82.987C114.984 82.987 113.965 83.403 113.342 84.236C112.718 85.068 112.397 86.462 112.377 88.416V88.655ZM104.301 50.031C104.301 48.755 104.044 47.802 103.531 47.174C103.017 46.546 102.202 46.232 101.085 46.232C99.61 46.232 98.525 46.673 97.833 47.556C97.139 48.438 96.793 49.916 96.793 51.99V60.201H93.279V36.93H96.793V42.837C96.793 43.784 96.733 44.796 96.614 45.873H96.838C97.317 45.075 97.982 44.457 98.835 44.019C99.687 43.58 100.682 43.36 101.818 43.36C105.826 43.36 107.83 45.38 107.83 49.418V60.201H104.301V50.031ZM102.79 13.709C104.156 14.238 105.148 14.721 105.766 15.16C106.385 15.599 106.843 16.105 107.142 16.678C107.442 17.252 107.591 17.937 107.591 18.734C107.591 20.35 107.003 21.589 105.826 22.451C104.65 23.313 102.965 23.745 100.771 23.745C98.568 23.745 96.798 23.411 95.462 22.743V19.707C97.406 20.604 99.216 21.053 100.891 21.053C103.054 21.053 104.136 20.4 104.136 19.093C104.136 18.675 104.017 18.326 103.777 18.047C103.538 17.767 103.144 17.478 102.596 17.179C102.047 16.88 101.285 16.541 100.308 16.162C98.403 15.424 97.115 14.687 96.442 13.949C95.769 13.211 95.432 12.254 95.432 11.077C95.432 9.66201 96.003 8.56201 97.145 7.77901C98.286 6.99701 99.839 6.60501 101.803 6.60501C103.747 6.60501 105.587 6.99901 107.322 7.78701L106.185 10.434C104.4 9.69601 102.9 9.32701 101.684 9.32701C99.829 9.32701 98.902 9.85601 98.902 10.913C98.902 11.431 99.143 11.87 99.627 12.229C100.111 12.588 101.165 13.081 102.79 13.709ZM91.514 9.85101C90.108 9.85101 88.969 10.31 88.096 11.227C87.224 12.144 86.788 13.335 86.788 14.801V23.446H83.273V6.90501H86.025L86.489 9.82101H86.668C87.216 8.83401 87.932 8.05101 88.814 7.47301C89.697 6.89501 90.646 6.60501 91.663 6.60501C92.371 6.60501 92.954 6.65501 93.413 6.75501L93.069 10.03C92.57 9.91101 92.052 9.85101 91.514 9.85101ZM85.098 43.66H89.809V46.322H85.098V55.175C85.098 56.023 85.309 56.649 85.733 57.052C86.157 57.456 86.713 57.658 87.401 57.658C88.258 57.658 89.116 57.524 89.973 57.254V59.901C89.584 60.071 89.083 60.213 88.47 60.328C87.857 60.442 87.221 60.5 86.563 60.5C83.233 60.5 81.568 58.745 81.568 55.235V46.322H79.31V44.766L81.733 43.48L82.929 39.981H85.098V43.66ZM69.559 19.669C70.376 20.532 71.528 20.963 73.014 20.963C73.991 20.963 74.9 20.871 75.743 20.686C76.585 20.502 77.49 20.195 78.457 19.766V22.623C77.6 23.032 76.732 23.321 75.855 23.49C74.978 23.66 73.976 23.745 72.849 23.745C70.277 23.745 68.265 22.995 66.814 21.494C65.364 19.993 64.638 17.927 64.638 15.295C64.638 12.593 65.311 10.469 66.657 8.92401C68.003 7.37801 69.853 6.60501 72.206 6.60501C74.39 6.60501 76.114 7.26901 77.381 8.59501C78.647 9.92101 79.28 11.745 79.28 14.068V15.968H68.258C68.307 17.573 68.741 18.807 69.559 19.669ZM75.825 13.425C75.805 12.059 75.476 11.025 74.838 10.322C74.2 9.61901 73.323 9.26801 72.206 9.26801C71.089 9.26801 70.194 9.62201 69.521 10.329C68.848 11.037 68.447 12.069 68.317 13.425H75.825ZM69.364 80.116C70.072 80.116 70.655 80.166 71.114 80.265L70.77 83.54C70.272 83.421 69.753 83.361 69.215 83.361C67.809 83.361 66.67 83.82 65.797 84.737C64.925 85.654 64.489 86.846 64.489 88.311V96.956H60.974V80.415H63.726L64.19 83.331H64.369C64.917 82.344 65.633 81.561 66.515 80.983C67.398 80.405 68.347 80.116 69.364 80.116ZM59.539 60.201L54.229 52.947L52.3 54.532V60.201H48.815V36.93H52.3V48.281L52.121 51.466H52.21L54.199 48.984L59.195 43.66H63.248L56.592 50.764L63.666 60.201H59.539ZM49.07 13.709C50.435 14.238 51.427 14.721 52.046 15.16C52.664 15.599 53.123 16.105 53.422 16.678C53.721 17.252 53.87 17.937 53.87 18.734C53.87 20.35 53.282 21.589 52.106 22.451C50.929 23.313 49.244 23.745 47.051 23.745C44.847 23.745 43.077 23.411 41.741 22.743V19.707C43.686 20.604 45.495 21.053 47.17 21.053C49.334 21.053 50.416 20.4 50.416 19.093C50.416 18.675 50.296 18.326 50.057 18.047C49.817 17.767 49.423 17.478 48.875 17.179C48.327 16.88 47.564 16.541 46.587 16.162C44.682 15.424 43.394 14.687 42.721 13.949C42.048 13.211 41.711 12.254 41.711 11.077C41.711 9.66201 42.282 8.56201 43.424 7.77901C44.565 6.99701 46.118 6.60501 48.082 6.60501C50.027 6.60501 51.866 6.99901 53.601 7.78701L52.464 10.434C50.68 9.69601 49.179 9.32701 47.963 9.32701C46.108 9.32701 45.181 9.85601 45.181 10.913C45.181 11.431 45.423 11.87 45.906 12.229C46.39 12.588 47.444 13.081 49.07 13.709ZM43.79 60.201H40.276V36.93H43.79V60.201ZM34.637 21.142H34.518C33.72 22.15 32.917 22.835 32.11 23.199C31.302 23.563 30.265 23.745 28.999 23.745C27.374 23.745 26.105 23.306 25.193 22.429C24.281 21.551 23.824 20.31 23.824 18.705C23.824 17 24.457 15.713 25.724 14.846C26.99 13.979 28.919 13.505 31.512 13.425L34.368 13.335V12.453C34.368 11.396 34.121 10.606 33.628 10.083C33.134 9.55901 32.369 9.29701 31.332 9.29701C30.485 9.29701 29.672 9.42201 28.894 9.67101C28.117 9.92101 27.369 10.215 26.651 10.554L25.514 8.04101C26.412 7.57301 27.394 7.21601 28.461 6.97201C29.527 6.72801 30.534 6.60501 31.482 6.60501C33.585 6.60501 35.173 7.06401 36.245 7.98101C37.317 8.89901 37.853 10.339 37.853 12.304V23.446H35.34L34.637 21.142ZM34.338 15.549L32.215 15.639C30.559 15.698 29.355 15.975 28.603 16.469C27.85 16.962 27.474 17.717 27.474 18.734C27.474 19.472 27.693 20.043 28.132 20.447C28.57 20.851 29.228 21.053 30.106 21.053C31.382 21.053 32.406 20.696 33.179 19.983C33.952 19.271 34.338 18.271 34.338 16.985V15.549ZM28.461 43.36C30.854 43.36 32.748 44.131 34.144 45.671C35.54 47.212 36.238 49.288 36.238 51.9C36.238 54.602 35.544 56.711 34.159 58.226C32.773 59.742 30.843 60.5 28.371 60.5C26.825 60.5 25.459 60.151 24.273 59.453C23.086 58.755 22.174 57.753 21.536 56.447C20.898 55.141 20.579 53.625 20.579 51.9C20.579 49.218 21.267 47.124 22.643 45.619C24.019 44.113 25.958 43.36 28.461 43.36ZM28.431 57.628C31.222 57.628 32.618 55.719 32.618 51.9C32.618 48.122 31.212 46.232 28.401 46.232C26.925 46.232 25.856 46.721 25.193 47.698C24.53 48.675 24.198 50.076 24.198 51.9C24.198 55.719 25.609 57.628 28.431 57.628ZM9.003 23.446H2.886V1.58001H9.646C13.126 1.58001 15.833 2.51801 17.767 4.39201C19.702 6.26701 20.669 8.90401 20.669 12.304C20.669 15.913 19.667 18.672 17.663 20.581C15.659 22.491 12.772 23.446 9.003 23.446ZM9.557 4.57101H6.461V20.439H9.003C14.268 20.439 16.9 17.767 16.9 12.423C16.9 7.18901 14.452 4.57101 9.557 4.57101ZM8.241 51.93C8.48 52.578 8.734 53.413 9.003 54.435C9.273 55.457 9.447 56.217 9.527 56.716C9.656 55.958 9.856 55.081 10.125 54.084C10.394 53.087 10.613 52.349 10.783 51.87L15.345 38.335H19.054L11.396 60.201H7.627L0 38.335H3.679L8.241 51.93ZM15.33 76.676C16.685 77.733 17.364 79.328 17.364 81.462C17.364 84.183 15.948 86.123 13.116 87.279L19.293 96.956H15.225L9.99 88.222H6.461V96.956H2.886V75.09H9.063C11.885 75.09 13.974 75.619 15.33 76.676ZM6.461 78.111V85.26H8.943C10.608 85.26 11.815 84.951 12.563 84.333C13.311 83.715 13.684 82.798 13.684 81.581C13.684 80.345 13.281 79.457 12.473 78.919C11.665 78.381 10.449 78.111 8.824 78.111H6.461ZM25.484 90.614C25.484 91.881 25.744 92.83 26.262 93.463C26.78 94.097 27.593 94.413 28.7 94.413C30.175 94.413 31.26 93.972 31.953 93.09C32.646 92.207 32.992 90.729 32.992 88.655V80.415H36.522V96.956H33.755L33.261 94.787H33.082C32.593 95.555 31.898 96.158 30.996 96.597C30.093 97.035 29.064 97.255 27.907 97.255C25.903 97.255 24.408 96.756 23.421 95.759C22.434 94.762 21.94 93.252 21.94 91.228V80.415H25.484V90.614ZM45.046 79.592C45.046 80.539 44.987 81.551 44.867 82.628H45.091C45.57 81.831 46.235 81.212 47.088 80.774C47.94 80.335 48.935 80.116 50.072 80.116C54.08 80.116 56.084 82.135 56.084 86.173V96.956H52.554V86.786C52.554 85.51 52.297 84.557 51.784 83.929C51.27 83.301 50.455 82.987 49.339 82.987C47.863 82.987 46.779 83.428 46.086 84.311C45.393 85.193 45.046 86.671 45.046 88.745V96.956H41.532V73.685H45.046V79.592ZM72.64 50.464C74.006 50.993 74.998 51.477 75.616 51.915C76.234 52.354 76.693 52.86 76.992 53.433C77.291 54.007 77.44 54.692 77.44 55.49C77.44 57.105 76.852 58.344 75.676 59.206C74.499 60.069 72.814 60.5 70.621 60.5C68.417 60.5 66.647 60.166 65.311 59.498V56.462C67.256 57.359 69.065 57.808 70.74 57.808C72.904 57.808 73.986 57.155 73.986 55.848C73.986 55.43 73.866 55.081 73.627 54.802C73.387 54.523 72.993 54.233 72.445 53.934C71.897 53.635 71.134 53.296 70.157 52.917C68.253 52.179 66.964 51.442 66.291 50.704C65.618 49.966 65.281 49.009 65.281 47.832C65.281 46.417 65.852 45.317 66.994 44.535C68.135 43.752 69.688 43.36 71.653 43.36C73.597 43.36 75.436 43.754 77.171 44.542L76.035 47.189C74.25 46.451 72.749 46.082 71.533 46.082C69.678 46.082 68.751 46.611 68.751 47.668C68.751 48.186 68.993 48.625 69.477 48.984C69.96 49.343 71.014 49.836 72.64 50.464ZM75.676 95.699C75.207 95.5 74.821 95.178 74.517 94.735C74.212 94.291 74.06 93.825 74.06 93.336C74.06 92.718 74.235 92.195 74.584 91.766C74.933 91.337 75.451 90.914 76.139 90.495C75.282 90.126 74.586 89.525 74.053 88.693C73.52 87.86 73.253 86.886 73.253 85.769C73.253 83.974 73.819 82.583 74.95 81.596C76.082 80.609 77.695 80.116 79.788 80.116C80.257 80.116 80.748 80.148 81.262 80.213C81.775 80.278 82.161 80.345 82.421 80.415H88.149V82.344L85.322 82.867C85.581 83.217 85.796 83.645 85.965 84.154C86.135 84.662 86.219 85.2 86.219 85.769C86.219 87.474 85.631 88.815 84.455 89.792C83.278 90.769 81.658 91.258 79.594 91.258C79.065 91.258 78.587 91.218 78.158 91.138C77.4 91.607 77.022 92.155 77.022 92.783C77.022 93.162 77.199 93.446 77.553 93.635C77.906 93.825 78.557 93.92 79.504 93.92H82.391C84.215 93.92 85.601 94.308 86.548 95.086C87.496 95.864 87.969 96.986 87.969 98.451C87.969 100.326 87.196 101.771 85.651 102.788C84.106 103.805 81.872 104.314 78.951 104.314C76.698 104.314 74.978 103.915 73.791 103.117C72.605 102.32 72.012 101.183 72.012 99.707C72.012 98.69 72.333 97.835 72.976 97.143C73.619 96.45 74.519 95.969 75.676 95.699ZM77.463 88.162C77.996 88.72 78.761 88.999 79.759 88.999C81.793 88.999 82.81 87.913 82.81 85.739C82.81 84.662 82.558 83.832 82.054 83.249C81.551 82.665 80.785 82.374 79.759 82.374C78.742 82.374 77.971 82.663 77.448 83.241C76.924 83.82 76.663 84.662 76.663 85.769C76.663 86.806 76.929 87.603 77.463 88.162ZM76.177 101.278C76.86 101.687 77.819 101.891 79.056 101.891C80.97 101.891 82.396 101.617 83.333 101.068C84.27 100.52 84.739 99.792 84.739 98.885C84.739 98.167 84.482 97.656 83.969 97.352C83.455 97.048 82.5 96.896 81.105 96.896H78.442C77.435 96.896 76.635 97.133 76.042 97.606C75.449 98.08 75.152 98.72 75.152 99.528C75.152 100.286 75.494 100.869 76.177 101.278ZM97.795 80.116C99.979 80.116 101.703 80.779 102.97 82.105C104.236 83.431 104.869 85.255 104.869 87.578V89.478H93.847C93.897 91.083 94.33 92.317 95.148 93.179C95.965 94.042 97.117 94.473 98.603 94.473C99.58 94.473 100.489 94.381 101.332 94.196C102.175 94.012 103.079 93.705 104.047 93.277V96.133C103.189 96.542 102.322 96.831 101.444 97C100.567 97.17 99.565 97.255 98.438 97.255C95.866 97.255 93.854 96.505 92.404 95.004C90.953 93.503 90.228 91.437 90.228 88.805C90.228 86.103 90.901 83.979 92.247 82.434C93.593 80.888 95.442 80.116 97.795 80.116ZM101.414 86.935C101.394 85.569 101.065 84.535 100.427 83.832C99.789 83.129 98.912 82.778 97.795 82.778C96.678 82.778 95.784 83.132 95.111 83.84C94.438 84.548 94.036 85.58 93.907 86.935H101.414ZM129.725 74.073C130.344 74.073 130.825 74.243 131.169 74.582C131.513 74.921 131.685 75.405 131.685 76.033C131.685 76.631 131.513 77.102 131.169 77.446C130.825 77.79 130.344 77.962 129.725 77.962C129.087 77.962 128.596 77.79 128.252 77.446C127.908 77.102 127.736 76.631 127.736 76.033C127.736 75.405 127.908 74.921 128.252 74.582C128.596 74.243 129.087 74.073 129.725 74.073ZM131.46 96.956H127.946V80.415H131.46V96.956ZM155.823 76.736H157.992V80.415H162.703V83.077H157.992V91.931C157.992 92.778 158.203 93.404 158.627 93.807C159.051 94.211 159.607 94.413 160.295 94.413C161.152 94.413 162.01 94.279 162.867 94.009V96.657C162.478 96.826 161.977 96.968 161.364 97.083C160.751 97.197 160.115 97.255 159.457 97.255C156.127 97.255 154.462 95.5 154.462 91.99V83.077H152.204V81.521L154.627 80.235L155.823 76.736ZM172.289 90.689C171.741 90.39 170.978 90.051 170.001 89.672C168.097 88.934 166.808 88.197 166.135 87.459C165.462 86.721 165.126 85.764 165.126 84.587C165.126 83.172 165.696 82.072 166.838 81.29C167.98 80.507 169.532 80.116 171.497 80.116C173.441 80.116 175.28 80.51 177.015 81.297L175.879 83.944C174.094 83.206 172.593 82.837 171.377 82.837C169.523 82.837 168.595 83.366 168.595 84.423C168.595 84.941 168.837 85.38 169.321 85.739C169.804 86.098 170.858 86.591 172.484 87.219C173.85 87.748 174.842 88.232 175.46 88.67C176.078 89.109 176.537 89.615 176.836 90.188C177.135 90.762 177.285 91.447 177.285 92.245C177.285 93.86 176.696 95.099 175.52 95.961C174.343 96.824 172.658 97.255 170.465 97.255C168.261 97.255 166.491 96.921 165.155 96.253V93.217C167.1 94.114 168.909 94.563 170.584 94.563C172.748 94.563 173.83 93.91 173.83 92.604C173.83 92.185 173.71 91.836 173.471 91.557C173.232 91.278 172.838 90.988 172.289 90.689ZM181.517 90.315L180.739 75.09H184.882L184.119 90.315H181.517ZM182.803 92.828C183.511 92.828 184.054 93.027 184.433 93.426C184.812 93.825 185.002 94.378 185.002 95.086C185.002 95.794 184.81 96.355 184.426 96.769C184.042 97.182 183.501 97.389 182.803 97.389C182.095 97.389 181.544 97.19 181.151 96.791C180.757 96.392 180.56 95.824 180.56 95.086C180.56 94.348 180.754 93.788 181.143 93.404C181.532 93.02 182.085 92.828 182.803 92.828ZM236.12 23.446H232.606V6.90501H236.12V23.446ZM278.744 23.446H275.229V6.90501H278.744V23.446Z" fill="white"/>
</svg>
