<svg width="321" height="71" viewBox="0 0 321 71" fill="none" xmlns="http://www.w3.org/2000/svg">
<rect width="321" height="71" fill="#FFCC00"/>
<path fill-rule="evenodd" clip-rule="evenodd" d="M44 54L69 29L66 26C66 26 63.5 28.5 61 26C58.5 23.5 61 21 61 21L58 18L53.8316 22.1684L54.6631 23L54 23.6632L53.1684 22.8316L33 43L36 46C36 46 38.5 44.5 40.5 46.5C42.5 48.5 41 51 41 51L44 54ZM55 24.6632L55.6631 24L57.6631 26L57 26.6632L55 24.6632ZM58.6631 27L58 27.6632L60 29.6632L60.6631 29L58.6631 27ZM61 30.6632L61.6631 30L63.6631 32L63 32.6632L61 30.6632Z" fill="#052453"/>
<path fill-rule="evenodd" clip-rule="evenodd" d="M283.671 46.517V36.676C283.671 35.441 283.423 34.519 282.926 33.912C282.429 33.304 281.64 32.1 280.56 32.1C279.122 32.1 278.071 33.425 277.405 34.273C276.739 35.123 276.406 36.546 276.406 38.543V46.517H273.005V30.511H275.668L276.146 32.609H276.319C276.802 31.847 277.487 31.259 278.374 30.844C279.262 30.429 280.246 30.221 281.327 30.221C285.167 30.221 287.087 32.175 287.087 36.082V46.517H283.671ZM268.201 33.362C266.84 33.362 265.738 33.806 264.894 34.693C264.049 35.581 263.627 36.734 263.627 38.152V46.517H260.227V30.511H262.889L263.338 33.333H263.512C264.042 32.378 264.735 31.62 265.588 31.061C266.442 30.501 267.361 30.221 268.345 30.221C269.03 30.221 269.595 30.27 270.039 30.366L269.706 33.535C269.223 33.42 268.722 33.362 268.201 33.362ZM246.956 42.863C247.747 43.697 248.861 44.114 250.299 44.114C251.244 44.114 252.124 44.025 252.94 43.847C253.755 43.668 254.631 43.372 255.567 42.957V45.721C254.737 46.117 253.897 46.396 253.048 46.56C252.199 46.724 251.23 46.806 250.14 46.806C247.65 46.806 245.704 46.08 244.3 44.628C242.896 43.176 242.194 41.177 242.194 38.63C242.194 36.015 242.846 33.96 244.148 32.464C245.451 30.969 247.24 30.221 249.517 30.221C251.63 30.221 253.299 30.863 254.525 32.146C255.75 33.429 256.362 35.195 256.362 37.443V39.281H245.697C245.745 40.834 246.164 42.028 246.956 42.863ZM253.019 36.821C253 35.499 252.682 34.498 252.064 33.818C251.447 33.137 250.598 32.797 249.517 32.797C248.437 32.797 247.571 33.14 246.92 33.825C246.268 34.51 245.88 35.509 245.755 36.821H253.019ZM235.002 36.676C235.002 35.441 234.753 34.519 234.257 33.912C233.759 33.304 232.971 32.1 231.89 32.1C230.462 32.1 229.413 33.427 228.743 34.281C228.072 35.135 227.737 36.565 227.737 38.572V46.517H224.336V23.998H227.737V29.715C227.737 30.631 227.679 31.611 227.563 32.653H227.78C228.243 31.881 228.887 31.283 229.712 30.858C230.537 30.434 231.5 30.221 232.599 30.221C236.478 30.221 238.417 32.175 238.417 36.082V46.517H235.002V36.676ZM216.362 33.058C213.593 33.058 212.208 34.896 212.208 38.572C212.208 40.366 212.553 41.715 213.243 42.617C213.933 43.519 214.944 43.97 216.275 43.97C217.79 43.97 219.222 43.593 220.573 42.841V45.808C219.965 46.165 219.316 46.42 218.627 46.575C217.937 46.729 217.1 46.806 216.116 46.806C213.694 46.806 211.854 46.1 210.595 44.686C209.336 43.273 208.706 41.244 208.706 38.601C208.706 35.909 209.365 33.839 210.682 32.392C211.999 30.945 213.902 30.221 216.391 30.221C218.079 30.221 219.599 30.535 220.95 31.162L219.922 33.897C218.484 33.338 217.298 33.058 216.362 33.058ZM203.12 28.137C202.502 28.137 202.027 27.971 201.694 27.638C201.362 27.305 201.195 26.849 201.195 26.27C201.195 25.663 201.362 25.195 201.694 24.867C202.027 24.539 202.502 24.375 203.12 24.375C203.718 24.375 204.184 24.539 204.517 24.867C204.849 25.195 205.016 25.663 205.016 26.27C205.016 26.849 204.849 27.305 204.517 27.638C204.184 27.971 203.718 28.137 203.12 28.137ZM193.076 37.095C194.398 37.607 195.358 38.075 195.956 38.499C196.554 38.924 196.998 39.414 197.288 39.968C197.577 40.523 197.722 41.186 197.722 41.958C197.722 43.521 197.153 44.72 196.014 45.554C194.876 46.389 193.245 46.806 191.123 46.806C188.99 46.806 187.278 46.483 185.985 45.837V42.899C187.866 43.767 189.618 44.201 191.238 44.201C193.332 44.201 194.379 43.569 194.379 42.305C194.379 41.9 194.263 41.563 194.032 41.292C193.8 41.022 193.419 40.742 192.888 40.453C192.358 40.164 191.619 39.836 190.674 39.469C188.831 38.755 187.584 38.041 186.933 37.327C186.282 36.613 185.956 35.687 185.956 34.548C185.956 33.179 186.508 32.115 187.613 31.357C188.718 30.6 190.22 30.221 192.121 30.221C194.003 30.221 195.783 30.603 197.461 31.365L196.362 33.926C194.634 33.212 193.182 32.855 192.005 32.855C190.211 32.855 189.314 33.367 189.314 34.389C189.314 34.891 189.548 35.315 190.016 35.663C190.483 36.01 191.504 36.488 193.076 37.095ZM170.949 37.095C172.27 37.607 173.23 38.075 173.829 38.499C174.427 38.924 174.871 39.414 175.16 39.968C175.45 40.523 175.594 41.186 175.594 41.958C175.594 43.521 175.025 44.72 173.887 45.554C172.748 46.389 171.117 46.806 168.995 46.806C166.863 46.806 165.15 46.483 163.857 45.837V42.899C165.739 43.767 167.49 44.201 169.111 44.201C171.204 44.201 172.251 43.569 172.251 42.305C172.251 41.9 172.135 41.563 171.904 41.292C171.672 41.022 171.291 40.742 170.761 40.453C170.23 40.164 169.492 39.836 168.546 39.469C166.703 38.755 165.457 38.041 164.805 37.327C164.154 36.613 163.828 35.687 163.828 34.548C163.828 33.179 164.381 32.115 165.486 31.357C166.59 30.6 168.093 30.221 169.994 30.221C171.875 30.221 173.655 30.603 175.334 31.365L174.234 33.926C172.507 33.212 171.055 32.855 169.878 32.855C168.083 32.855 167.186 33.367 167.186 34.389C167.186 34.891 167.42 35.315 167.888 35.663C168.356 36.01 169.376 36.488 170.949 37.095ZM158.344 46.806C155.121 46.806 153.51 45.108 153.51 41.712V33.087H151.325V31.582L153.669 30.337L154.827 26.951H156.925V30.511H161.484V33.087H156.925V41.654C156.925 42.474 157.13 43.08 157.54 43.47C157.95 43.861 158.488 44.057 159.154 44.057C159.984 44.057 160.813 43.926 161.643 43.666V46.227C161.267 46.392 160.782 46.529 160.189 46.64C159.595 46.751 158.98 46.806 158.344 46.806ZM139.921 42.863C140.712 43.697 141.826 44.114 143.264 44.114C144.209 44.114 145.09 44.025 145.905 43.847C146.72 43.668 147.596 43.372 148.532 42.957V45.721C147.702 46.117 146.862 46.396 146.013 46.56C145.164 46.724 144.195 46.806 143.105 46.806C140.615 46.806 138.669 46.08 137.265 44.628C135.861 43.176 135.159 41.177 135.159 38.63C135.159 36.015 135.811 33.96 137.113 32.464C138.416 30.969 140.205 30.221 142.482 30.221C144.595 30.221 146.264 30.863 147.49 32.146C148.715 33.429 149.328 35.195 149.328 37.443V39.281H138.662C138.71 40.834 139.13 42.028 139.921 42.863ZM145.985 36.821C145.965 35.499 145.647 34.498 145.029 33.818C144.412 33.137 143.563 32.797 142.482 32.797C141.402 32.797 140.536 33.14 139.885 33.825C139.233 34.51 138.845 35.509 138.72 36.821H145.985ZM129.544 46.517L124.407 39.498L122.54 41.032V46.517H119.168V23.998H122.54V34.983L122.366 38.065H122.453L124.378 35.663L129.211 30.511H133.133L126.693 37.385L133.539 46.517H129.544ZM111.194 33.058C108.425 33.058 107.04 34.896 107.04 38.572C107.04 40.366 107.385 41.715 108.075 42.617C108.765 43.519 109.776 43.97 111.107 43.97C112.622 43.97 114.054 43.593 115.405 42.841V45.808C114.797 46.165 114.148 46.42 113.459 46.575C112.769 46.729 111.932 46.806 110.948 46.806C108.526 46.806 106.686 46.1 105.427 44.686C104.168 43.273 103.538 41.244 103.538 38.601C103.538 35.909 104.197 33.839 105.514 32.392C106.831 30.945 108.734 30.221 111.223 30.221C112.911 30.221 114.431 30.535 115.781 31.162L114.754 33.897C113.316 33.338 112.13 33.058 111.194 33.058ZM97.9518 28.137C97.3338 28.137 96.8588 27.971 96.5258 27.638C96.1938 27.305 96.0268 26.849 96.0268 26.27C96.0268 25.663 96.1938 25.195 96.5258 24.867C96.8588 24.539 97.3338 24.375 97.9518 24.375C98.5498 24.375 99.0158 24.539 99.3478 24.867C99.6808 25.195 99.8478 25.663 99.8478 26.27C99.8478 26.849 99.6808 27.305 99.3478 27.638C99.0158 27.971 98.5498 28.137 97.9518 28.137ZM87.1268 46.517H83.6678V28.325H77.4448V25.359H93.3498V28.325H87.1268V46.517ZM99.6308 46.517H96.2298V30.511H99.6308V46.517ZM204.799 46.517H201.398V30.511H204.799V46.517Z" fill="#052453"/>
</svg>
